<?xml version="1.0" encoding="UTF-8" standalone="no"?>
<!-- Generator: Adobe Illustrator 22.1.0, SVG Export Plug-In . SVG Version: 6.00 Build 0)  -->

<svg
   xmlns:dc="http://purl.org/dc/elements/1.1/"
   xmlns:cc="http://creativecommons.org/ns#"
   xmlns:rdf="http://www.w3.org/1999/02/22-rdf-syntax-ns#"
   xmlns:svg="http://www.w3.org/2000/svg"
   xmlns="http://www.w3.org/2000/svg"
   xmlns:sodipodi="http://sodipodi.sourceforge.net/DTD/sodipodi-0.dtd"
   xmlns:inkscape="http://www.inkscape.org/namespaces/inkscape"
   version="1.1"
   id="Ebene_1"
   x="0px"
   y="0px"
   viewBox="0 0 133.0907 130.9"
   xml:space="preserve"
   sodipodi:docname="Extension.svg"
   width="133.0907"
   height="130.89999"
   inkscape:version="0.92.3 (2405546, 2018-03-11)"><metadata
   id="metadata11"><rdf:RDF><cc:Work
       rdf:about=""><dc:format>image/svg+xml</dc:format><dc:type
         rdf:resource="http://purl.org/dc/dcmitype/StillImage" /><dc:title></dc:title></cc:Work></rdf:RDF></metadata><defs
   id="defs9" /><sodipodi:namedview
   pagecolor="#ffffff"
   bordercolor="#666666"
   borderopacity="1"
   objecttolerance="10"
   gridtolerance="10"
   guidetolerance="10"
   inkscape:pageopacity="0"
   inkscape:pageshadow="2"
   inkscape:window-width="1916"
   inkscape:window-height="989"
   id="namedview7"
   showgrid="false"
   fit-margin-top="0"
   fit-margin-left="0"
   fit-margin-right="0"
   fit-margin-bottom="0"
   inkscape:zoom="1.6654905"
   inkscape:cx="-2.498517"
   inkscape:cy="65.350002"
   inkscape:window-x="0"
   inkscape:window-y="66"
   inkscape:window-maximized="0"
   inkscape:current-layer="Ebene_1" />
<style
   type="text/css"
   id="style2">
	.st0{fill:#FFFFFF;}
</style>
<path
   class="st0"
   d="m 79.6,19.3 c -2.4,0 -5.1,0.4 -8.1,1.1 -6.7,1.6 -13.5,5.8 -18.4,11.2 -5.3,5.9 -7.5,12.5 -6.2,18.1 0.1,0.4 0.2,0.7 0.3,1.1 -5.1,-0.1 -8.7,-1.8 -9.3,-4.3 -0.3,-1.2 -0.1,-2.2 0.7,-3.1 0.7,-0.8 1.7,-1.5 2.9,-1.7 l 1.8,-0.4 -0.4,-1.8 c -1,-4.1 -3.5,-4.9 -5.4,-4.9 -0.6,0 -1.2,0.1 -1.9,0.2 -0.9,0.2 -3.1,1.2 -4.8,3.2 -1.5,1.7 -3,4.7 -1.9,9.1 1.5,6.2 8.4,9.9 18.4,9.9 1,0 2,0 3,-0.1 2.9,3.7 7.3,5.6 14.5,8.6 l 0.9,0.3 c 6.5,2.6 12,4.8 13.7,11.6 3.4,13.9 -9.9,22.5 -19.6,24.8 -2.4,0.6 -4.7,0.9 -6.8,0.9 -3.6,0 -13.2,-1.8 -15.2,-10 -1,-4 0.7,-7.1 2.3,-9 2.3,-2.7 5.8,-4.7 10,-5.7 L 51.9,78 51.5,76.2 C 50.5,72 47,69.9 42.6,70.9 33,73.2 24.3,82.3 26.9,93 c 1.1,4.5 3.7,8.7 7.5,11.7 4.5,3.7 10.5,5.6 17.4,5.6 0,0 0,0 0,0 3.5,0 7.2,-0.5 11.1,-1.4 5.8,-1.4 15.2,-5.2 22.4,-11.2 C 94.5,90.1 98,80.8 95.7,70.9 93.8,63.2 87.2,57.3 76,53.3 c -1.5,-0.5 -3,-1 -4.4,-1.4 -0.1,0 -0.1,0 -0.2,-0.1 16.2,-6.1 24.2,-14.5 22,-23.5 -0.8,-2.7 -3.4,-9 -13.8,-9 z M 62.9,48.1 c -0.7,-0.7 -1.1,-1.3 -1.3,-2.1 -0.8,-3.2 0.1,-6.5 2.5,-9.5 2.5,-3.1 6.4,-5.4 10.9,-6.5 1.9,-0.5 3.6,-0.7 5,-0.7 3.7,0 4.5,1.6 4.8,2.9 1.2,5 -7.8,11.5 -21.9,15.9 z m 69.8,-18.3 c -0.4,0.8 -1.4,1.8 -3.6,1.8 0,0 0,0 0,0 h -0.4 c -1.8,0 -6,0.7 -9.7,1.4 -0.5,1.2 -1,2.2 -1.5,3.3 l -0.3,0.7 c -3.4,7.8 -7.2,16.6 -6.2,24.5 0.1,0.5 0.2,1 0.4,1.5 0.1,0.4 0.3,0.9 0.4,1.5 l 0.5,2.2 -2.1,0.8 c -0.8,0.3 -1.6,0.6 -2.4,0.8 -0.8,0.2 -1.6,0.3 -2.4,0.3 -2,0 -3.8,-0.7 -5.1,-2.1 -2,-2.1 -2.8,-5.6 -2.4,-10.3 0.3,-3.4 1.1,-6.2 1.2,-6.5 1.4,-5.1 3.8,-9.8 6.2,-13.9 -2.5,0.5 -5,0.9 -7.3,1.4 l -0.4,0.1 -0.4,-0.1 c -0.7,-0.2 -1.7,-0.9 -1.8,-2 -0.1,-1.1 0.5,-2.1 1.9,-2.8 l 0.2,-0.1 c 0.2,-0.1 5.9,-2.6 13.1,-4.8 l 0.4,-0.6 c 2.2,-3.4 4.3,-6.6 6.1,-9.8 -1.5,-0.4 -3.1,-0.7 -5,-0.7 -2.2,0 -4.8,0.3 -7.6,1 -1.4,0.3 -3,0.8 -4.6,1.3 l -2.2,0.7 -0.9,-2.1 C 95,13.3 96.3,9.2 99.9,7 c 1.9,-1.1 4.2,-2 6.8,-2.6 2.4,-0.6 5,-0.8 7.4,-0.8 6.9,0 11.7,2.2 13.1,6.1 1.3,3.6 -1.1,8.7 -3.6,13.6 -0.3,0.5 -0.5,1 -0.7,1.3 0,0.1 -0.1,0.2 -0.1,0.2 2.8,-0.4 5.2,-0.5 7.4,-0.4 l 0.9,0.1 0.5,0.8 c 0.7,0.1 2.2,2.5 1.1,4.5 z m -6.8,10.3 c 3.3,7.8 5.1,16.4 5.1,25.3 0,36.1 -29.4,65.5 -65.5,65.5 C 29.4,130.9 0,101.5 0,65.4 0,29.3 29.5,0 65.6,0 75.5,0 84.9,2.2 93.3,6.2 91.9,7.9 89.8,11.5 90.7,17.1 83.2,13.2 74.7,11 65.6,11 35.5,11 11.1,35.5 11.1,65.5 c 0,30 24.5,54.5 54.5,54.5 30.1,0 54.5,-24.5 54.5,-54.5 0,-4.4 -0.5,-8.7 -1.5,-12.8 2.2,-6.5 5.5,-10.6 7.3,-12.6 z"
   id="path4"
   inkscape:connector-curvature="0"
   style="fill:#f47216" />
</svg>